<svg width="124" height="63" viewBox="0 0 124 63" fill="none" xmlns="http://www.w3.org/2000/svg">
<path d="M36.27 4.95C37.2 5.13 37.89 5.445 38.34 5.895C38.82 6.345 39.06 6.87 39.06 7.47C39.06 8.46 38.775 9.18 38.205 9.63C37.665 10.08 36.795 10.26 35.595 10.17C32.895 9.96 30.78 9.825 29.25 9.765C27.75 9.675 25.77 9.615 23.31 9.585C22.2 15.105 21.18 20.655 20.25 26.235C19.92 28.275 19.575 30.645 19.215 33.345C18.855 36.015 18.615 38.175 18.495 39.825C18.435 40.695 18.075 41.37 17.415 41.85C16.755 42.3 15.96 42.525 15.03 42.525C14.04 42.525 13.275 42.285 12.735 41.805C12.195 41.325 11.925 40.695 11.925 39.915C11.925 39.195 12.03 38.01 12.24 36.36C12.48 34.68 12.75 32.925 13.05 31.095C13.38 29.265 13.635 27.675 13.815 26.325C14.145 24.045 14.52 21.78 14.94 19.53C15.36 17.28 15.78 15.15 16.2 13.14C16.29 12.69 16.395 12.18 16.515 11.61C16.635 11.01 16.77 10.35 16.92 9.63C13.98 9.72 11.67 9.96 9.99 10.35C8.31 10.74 7.11 11.295 6.39 12.015C5.7 12.705 5.355 13.605 5.355 14.715C5.355 15.735 5.655 16.71 6.255 17.64C6.375 17.85 6.435 18.075 6.435 18.315C6.435 18.885 6.09 19.425 5.4 19.935C4.74 20.415 4.05 20.655 3.33 20.655C2.82 20.655 2.4 20.505 2.07 20.205C1.47 19.695 0.975003 18.975 0.585003 18.045C0.195003 17.085 3.05846e-06 16.005 3.05846e-06 14.805C3.05846e-06 12.255 0.825003 10.215 2.475 8.685C4.155 7.125 6.69 5.985 10.08 5.265C13.5 4.545 17.88 4.185 23.22 4.185C26.52 4.185 29.145 4.245 31.095 4.365C33.075 4.485 34.8 4.68 36.27 4.95ZM50.869 28.485C51.259 28.485 51.559 28.68 51.769 29.07C51.979 29.46 52.084 29.955 52.084 30.555C52.084 31.995 51.649 32.85 50.779 33.12C48.979 33.75 46.999 34.11 44.839 34.2C44.269 36.72 43.144 38.745 41.464 40.275C39.784 41.775 37.879 42.525 35.749 42.525C33.949 42.525 32.404 42.09 31.114 41.22C29.854 40.35 28.894 39.195 28.234 37.755C27.574 36.315 27.244 34.755 27.244 33.075C27.244 30.795 27.679 28.77 28.549 27C29.419 25.2 30.619 23.805 32.149 22.815C33.679 21.795 35.374 21.285 37.234 21.285C39.514 21.285 41.344 22.08 42.724 23.67C44.134 25.23 44.959 27.165 45.199 29.475C46.609 29.385 48.289 29.085 50.239 28.575C50.479 28.515 50.689 28.485 50.869 28.485ZM36.109 37.755C37.069 37.755 37.894 37.365 38.584 36.585C39.304 35.805 39.784 34.68 40.024 33.21C39.094 32.58 38.374 31.755 37.864 30.735C37.384 29.715 37.144 28.635 37.144 27.495C37.144 27.015 37.189 26.535 37.279 26.055H37.054C35.854 26.055 34.849 26.64 34.039 27.81C33.259 28.95 32.869 30.57 32.869 32.67C32.869 34.32 33.184 35.58 33.814 36.45C34.474 37.32 35.239 37.755 36.109 37.755ZM51.4167 42.525C50.2767 42.525 49.4667 41.925 48.9867 40.725C48.5367 39.525 48.3117 37.605 48.3117 34.965C48.3117 31.065 48.8667 27.36 49.9767 23.85C50.2467 22.98 50.6817 22.35 51.2817 21.96C51.9117 21.54 52.7817 21.33 53.8917 21.33C54.4917 21.33 54.9117 21.405 55.1517 21.555C55.3917 21.705 55.5117 21.99 55.5117 22.41C55.5117 22.89 55.2867 23.97 54.8367 25.65C54.5367 26.85 54.2967 27.9 54.1167 28.8C53.9367 29.7 53.7867 30.81 53.6667 32.13C54.6567 29.55 55.7667 27.45 56.9967 25.83C58.2267 24.21 59.4267 23.055 60.5967 22.365C61.7967 21.675 62.8917 21.33 63.8817 21.33C65.8317 21.33 66.8067 22.305 66.8067 24.255C66.8067 25.425 66.4767 27.54 65.8167 30.6C65.2467 33.21 64.9617 34.935 64.9617 35.775C64.9617 36.975 65.3967 37.575 66.2667 37.575C66.8667 37.575 67.5717 37.215 68.3817 36.495C69.2217 35.745 70.3317 34.545 71.7117 32.895C72.0717 32.475 72.4767 32.265 72.9267 32.265C73.3167 32.265 73.6167 32.445 73.8267 32.805C74.0667 33.165 74.1867 33.66 74.1867 34.29C74.1867 35.49 73.9017 36.42 73.3317 37.08C72.0417 38.67 70.6467 39.975 69.1467 40.995C67.6767 42.015 65.9967 42.525 64.1067 42.525C62.5767 42.525 61.4217 42.09 60.6417 41.22C59.8617 40.32 59.4717 39.03 59.4717 37.35C59.4717 36.51 59.6817 35.01 60.1017 32.85C60.4917 30.96 60.6867 29.655 60.6867 28.935C60.6867 28.455 60.5217 28.215 60.1917 28.215C59.8017 28.215 59.2467 28.725 58.5267 29.745C57.8367 30.735 57.1167 32.055 56.3667 33.705C55.6467 35.355 55.0617 37.095 54.6117 38.925C54.2817 40.335 53.8917 41.295 53.4417 41.805C53.0217 42.285 52.3467 42.525 51.4167 42.525ZM76.0809 42.525C74.2209 42.525 72.7359 41.85 71.6259 40.5C70.5159 39.15 69.9609 37.38 69.9609 35.19C69.9609 32.79 70.5159 30.525 71.6259 28.395C72.7359 26.235 74.2059 24.51 76.0359 23.22C77.8959 21.9 79.8609 21.24 81.9309 21.24C82.5909 21.24 83.0259 21.375 83.2359 21.645C83.4759 21.885 83.6709 22.335 83.8209 22.995C84.4509 22.875 85.1109 22.815 85.8009 22.815C87.2709 22.815 88.0059 23.34 88.0059 24.39C88.0059 25.02 87.7809 26.52 87.3309 28.89C86.6409 32.34 86.2959 34.74 86.2959 36.09C86.2959 36.54 86.4009 36.9 86.6109 37.17C86.8509 37.44 87.1509 37.575 87.5109 37.575C88.0809 37.575 88.7709 37.215 89.5809 36.495C90.3909 35.745 91.4859 34.545 92.8659 32.895C93.2259 32.475 93.6309 32.265 94.0809 32.265C94.4709 32.265 94.7709 32.445 94.9809 32.805C95.2209 33.165 95.3409 33.66 95.3409 34.29C95.3409 35.49 95.0559 36.42 94.4859 37.08C93.2559 38.61 91.9509 39.9 90.5709 40.95C89.1909 42 87.8559 42.525 86.5659 42.525C85.5759 42.525 84.6609 42.195 83.8209 41.535C83.0109 40.845 82.3959 39.915 81.9759 38.745C80.4159 41.265 78.4509 42.525 76.0809 42.525ZM77.7009 37.98C78.3609 37.98 78.9909 37.59 79.5909 36.81C80.1909 36.03 80.6259 34.995 80.8959 33.705L82.5609 25.425C81.3009 25.455 80.1309 25.935 79.0509 26.865C78.0009 27.765 77.1609 28.965 76.5309 30.465C75.9009 31.965 75.5859 33.555 75.5859 35.235C75.5859 36.165 75.7659 36.855 76.1259 37.305C76.5159 37.755 77.0409 37.98 77.7009 37.98ZM108.739 32.265C109.129 32.265 109.429 32.445 109.639 32.805C109.879 33.165 109.999 33.66 109.999 34.29C109.999 35.49 109.714 36.42 109.144 37.08C107.854 38.67 106.444 39.975 104.914 40.995C103.414 42.015 101.704 42.525 99.7836 42.525C97.1436 42.525 95.1786 41.325 93.8886 38.925C92.6286 36.525 91.9986 33.42 91.9986 29.61C91.9986 25.95 92.4636 21.78 93.3936 17.1C94.3536 12.42 95.7486 8.4 97.5786 5.04C99.4386 1.68 101.644 4.76837e-07 104.194 4.76837e-07C105.634 4.76837e-07 106.759 0.675001 107.569 2.025C108.409 3.345 108.829 5.25 108.829 7.74C108.829 11.31 107.839 15.45 105.859 20.16C103.879 24.87 101.194 29.535 97.8036 34.155C98.0136 35.385 98.3586 36.27 98.8386 36.81C99.3186 37.32 99.9486 37.575 100.729 37.575C101.959 37.575 103.039 37.23 103.969 36.54C104.899 35.82 106.084 34.605 107.524 32.895C107.884 32.475 108.289 32.265 108.739 32.265ZM103.204 4.455C102.514 4.455 101.734 5.7 100.864 8.19C99.9936 10.68 99.2286 13.77 98.5686 17.46C97.9086 21.15 97.5486 24.69 97.4886 28.08C99.6186 24.57 101.314 21.06 102.574 17.55C103.834 14.01 104.464 10.785 104.464 7.875C104.464 5.595 104.044 4.455 103.204 4.455ZM122.111 21.33C122.801 21.33 123.281 21.42 123.551 21.6C123.821 21.78 123.956 22.08 123.956 22.5C123.956 23.22 123.566 25.785 122.786 30.195C122.096 34.425 121.691 36.93 121.571 37.71C120.461 45.42 118.931 51.525 116.981 56.025C115.031 60.525 112.436 62.775 109.196 62.775C107.666 62.775 106.421 62.295 105.461 61.335C104.501 60.405 104.021 59.175 104.021 57.645C104.021 56.235 104.336 54.795 104.966 53.325C105.626 51.855 106.826 50.16 108.566 48.24C110.336 46.35 112.826 44.175 116.036 41.715L116.171 40.68C116.381 39.57 116.621 37.98 116.891 35.91C116.291 38.07 115.451 39.72 114.371 40.86C113.291 41.97 112.151 42.525 110.951 42.525C109.601 42.525 108.491 41.91 107.621 40.68C106.781 39.42 106.361 37.86 106.361 36C106.361 33.75 106.511 31.695 106.811 29.835C107.111 27.945 107.606 25.95 108.296 23.85C108.596 22.95 109.016 22.305 109.556 21.915C110.096 21.525 110.951 21.33 112.121 21.33C112.781 21.33 113.231 21.435 113.471 21.645C113.741 21.855 113.876 22.17 113.876 22.59C113.876 22.83 113.711 23.64 113.381 25.02C113.081 26.13 112.841 27.135 112.661 28.035C112.421 29.265 112.211 30.45 112.031 31.59C111.851 32.7 111.761 33.615 111.761 34.335C111.761 35.475 112.076 36.045 112.706 36.045C113.156 36.045 113.711 35.595 114.371 34.695C115.061 33.795 115.781 32.43 116.531 30.6C117.311 28.77 118.061 26.52 118.781 23.85C119.021 22.95 119.381 22.305 119.861 21.915C120.371 21.525 121.121 21.33 122.111 21.33ZM109.691 58.41C110.441 58.41 111.281 57.54 112.211 55.8C113.141 54.06 114.071 51.165 115.001 47.115C112.691 49.065 111.011 50.835 109.961 52.425C108.941 54.045 108.431 55.455 108.431 56.655C108.431 57.165 108.521 57.585 108.701 57.915C108.911 58.245 109.241 58.41 109.691 58.41Z" fill="white"/>
</svg>
